<?xml version="1.0" encoding="iso-8859-1"?>
<!-- Generator: Adobe Illustrator 19.0.0, SVG Export Plug-In . SVG Version: 6.00 Build 0)  -->
<svg version="1.1" id="Layer_1" xmlns="http://www.w3.org/2000/svg" xmlns:xlink="http://www.w3.org/1999/xlink" x="0px" y="0px"
	 viewBox="0 0 512.002 512.002" style="enable-background:new 0 0 512.002 512.002;" xml:space="preserve">
<g>
	<g>
		<path d="M161.288,215.804c-20.461,19.92-37.453,45.702-50.513,76.718c-24.936,59.219-33.422,132.632-24.221,208.033
			c0.888,7.282,7.623,12.38,14.84,11.303l41.17-6.141c6.968-1.039,11.833-7.426,10.996-14.421
			c-7.605-63.436-0.766-124.279,19.549-172.525c9.696-23.027,21.789-41.526,35.601-54.852
			C188.262,253.654,171.452,236.837,161.288,215.804z"/>
	</g>
</g>
<g>
	<g>
		<path d="M401.227,292.522c-13.143-31.21-30.266-57.121-50.899-77.091c-9.79,20.36-25.927,37.564-47.238,48.298
			c13.895,13.341,26.059,31.903,35.802,55.042c20.316,48.246,27.154,109.089,19.549,172.525
			c-0.839,6.995,4.028,13.382,10.996,14.421l41.17,6.141c7.225,1.078,13.953-4.03,14.84-11.303
			C434.651,425.154,426.164,351.741,401.227,292.522z"/>
	</g>
</g>
<g>
	<g>
		<path d="M310.565,0.743c-5.216-2.215-11.168,0.723-12.59,6.187l-16.027,61.608c30.405,7.852,55.94,29.079,69.125,57.894
			c2.156-5.024,3.981-10.291,5.41-15.785C368.725,63.584,348.412,16.814,310.565,0.743z"/>
	</g>
</g>
<g>
	<g>
		<path d="M324.509,152.225c-8.323-31.994-37.162-53.206-68.749-53.206c-5.926,0-11.945,0.746-17.947,2.307L213.256,6.931
			c-1.43-5.494-7.403-8.39-12.59-6.187c-37.848,16.072-58.162,62.841-45.917,109.904c5.406,20.778,16.326,38.413,30.355,51.251
			c-4.938,42.301,28.251,79.328,70.56,79.328C302.281,241.228,336.2,197.165,324.509,152.225z M256.077,192.5
			c-12.198,0-22.085-9.888-22.085-22.085c0-12.198,9.888-22.085,22.085-22.085s22.085,9.888,22.085,22.085
			S268.275,192.5,256.077,192.5z"/>
	</g>
</g>
<g>
</g>
<g>
</g>
<g>
</g>
<g>
</g>
<g>
</g>
<g>
</g>
<g>
</g>
<g>
</g>
<g>
</g>
<g>
</g>
<g>
</g>
<g>
</g>
<g>
</g>
<g>
</g>
<g>
</g>
</svg>
