<svg xmlns="http://www.w3.org/2000/svg" enable-background="new 0 0 32 32" viewBox="0 0 32 32"><path d="M16 4C8.8 4 3 9.8 3 17c0 7.2 5.8 13 13 13s13-5.8 13-13C29 9.8 23.2 4 16 4zM16 28.1c-6.1 0-11.1-5-11.1-11.1 0-6.1 5-11.1 11.1-11.1s11.1 5 11.1 11.1C27.1 23.1 22.1 28.1 16 28.1zM3.7 7.7l4-4c.4-.4.4-1 0-1.4s-1-.4-1.4 0l-4 4c-.4.4-.4 1 0 1.4C2.5 7.9 2.7 8 3 8S3.5 7.9 3.7 7.7zM29.7 6.3l-4-4c-.4-.4-1-.4-1.4 0s-.4 1 0 1.4l4 4C28.5 7.9 28.7 8 29 8s.5-.1.7-.3C30.1 7.3 30.1 6.7 29.7 6.3z"/><path d="M23.9,18c0,0-0.1,0-0.1,0c-0.5-0.1-0.9-0.5-0.9-1s0.4-0.9,0.9-1c0,0,0.1,0,0.1,0c0,0,0,0,0.1,0h1c-0.5-4.2-3.8-7.5-8-8v1
	c0,0,0,0,0,0.1c0,0,0,0.1,0,0.1c-0.1,0.5-0.5,0.9-1,0.9s-0.9-0.4-1-0.9c0,0,0-0.1,0-0.1c0,0,0,0,0-0.1V8c-4.2,0.5-7.5,3.8-8,8h1
	c0,0,0,0,0.1,0c0,0,0.1,0,0.1,0c0.5,0.1,0.9,0.5,0.9,1s-0.4,0.9-0.9,1c0,0-0.1,0-0.1,0c0,0,0,0-0.1,0H7c0.5,4.2,3.8,7.5,8,8v-1
	c0,0,0,0,0-0.1c0,0,0-0.1,0-0.1c0.1-0.5,0.5-0.9,1-0.9s0.9,0.4,1,0.9c0,0,0,0.1,0,0.1c0,0,0,0,0,0.1v1c4.2-0.5,7.5-3.8,8-8L23.9,18
	C24,18,24,18,23.9,18z M20,18h-4c-0.5,0-1-0.5-1-1v-5c0-0.5,0.5-1,1-1s1,0.5,1,1v4h3c0.5,0,1,0.5,1,1S20.5,18,20,18z"/></svg>